#define Letter_width 8
#define Letter_height 12
static unsigned char Letter_bits[] = {
   0x10, 0x18, 0x1c, 0x1e, 0x18, 0x18, 0x18, 0x18, 0x18, 0x18, 0x7e, 0x7e,};
