#define Number_4_width 13
#define Number_4_height 26
static unsigned char Number_4_bits[] = {
   0xe0, 0x00, 0xf0, 0x00, 0x70, 0x00, 0x70, 0x00, 0x78, 0x00, 0x78, 0x00,
   0x38, 0x00, 0x38, 0x00, 0x3c, 0x00, 0x3c, 0x00, 0x1c, 0x00, 0x1c, 0x00,
   0x1e, 0x00, 0x9e, 0x03, 0x8e, 0x03, 0x8e, 0x03, 0x8f, 0x03, 0x8f, 0x03,
   0xff, 0x1f, 0xff, 0x1f, 0xff, 0x1f, 0x80, 0x03, 0x80, 0x03, 0x80, 0x03,
   0x80, 0x03, 0x80, 0x03 };
